<svg width="345" height="181" viewBox="0 0 345 181" fill="none" xmlns="http://www.w3.org/2000/svg">
<path d="M184.762 7.04983C229.381 -18.6791 323.044 33.8974 336.872 39.211C341.07 40.8241 343.441 41.4578 344.708 41.5581V39.211C344.708 39.211 347.615 41.7882 344.708 41.5581V181H6.87668C-2.18848 143.898 -9.4406 72.435 34.0721 83.3977C88.4631 97.1012 128.988 39.211 184.762 7.04983Z" fill="#EFAB28" fill-opacity="0.25"/>
<path d="M192.15 15.7382C234.448 -8.85353 323.238 41.3992 336.347 46.478C340.327 48.0197 342.575 48.6254 343.776 48.7213V46.478C343.776 46.478 346.531 48.9412 343.776 48.7213V182H23.5189C14.9254 146.538 8.05053 78.2334 49.2996 88.7116C100.861 101.809 139.278 46.4779 192.15 15.7382Z" fill="#EFAB28" fill-opacity="0.25"/>
</svg>
